<svg height="512" viewBox="0 0 512 512" width="512" xmlns="http://www.w3.org/2000/svg"><g id="_10.Plus" data-name="10.Plus"><circle cx="256" cy="256" fill="#f7f5fb" r="245"/><path d="m377.1831 211.0023h-76.1853v-76.1853a44.9978 44.9978 0 0 0 -44.9978-44.9976 44.9975 44.9975 0 0 0 -44.9976 44.9976v76.1853h-76.1853a44.9976 44.9976 0 0 0 -44.9978 44.9977 44.9977 44.9977 0 0 0 44.9978 44.9977h76.1853v76.1853a44.9975 44.9975 0 0 0 44.9976 44.9976 44.9977 44.9977 0 0 0 44.9978-44.9976v-76.1853h76.1853a44.9975 44.9975 0 0 0 44.9975-44.9977 44.9974 44.9974 0 0 0 -44.9975-44.9977z" fill="#74d1d1"/><path d="m313.8244 494.134a245.3753 245.3753 0 0 1 -57.82 6.87c-135.31 0-245-109.69-245-245a243.802 243.802 0 0 1 37.7-130.63c24.4499 160.97 125.6598 296.73 265.12 368.76z" fill="#e4e3e8"/></g></svg>