<svg viewBox="0 0 512 512" xmlns="http://www.w3.org/2000/svg"><g id="_15_Wrong" data-name="15 Wrong"><path d="m494.62 407.24c-12.9 1.15-28.21.05-43.41-6.87l-.29-.13a28.32 28.32 0 0 1 -13.08-38.87 225.38 225.38 0 0 0 26-102.9c1.31-122.91-99.74-226.85-222.64-228.85-126.84-2.05-230.27 100.16-230.2 226.52.07 125 102.43 226.81 227.41 226.26a225.28 225.28 0 0 0 131.23-42.62 28.18 28.18 0 0 1 21.62-4.9 162.84 162.84 0 0 0 106.59-16.56c5.66-3.01 3.15-11.65-3.23-11.08z" fill="#f07a88"/><path d="m291.49 256 55.8-55.81a40 40 0 0 0 -56.57-56.57l-55.8 55.81-55.81-55.81a40 40 0 0 0 -56.57 56.57l55.81 55.81-55.81 55.81a40 40 0 0 0 56.57 56.57l55.81-55.81 55.8 55.81a40 40 0 0 0 56.57-56.57z" fill="#4a5058"/><path d="m331.5 462a225.15 225.15 0 0 1 -93.09 20.44c-125 .54-227.33-101.29-227.4-226.27a225.46 225.46 0 0 1 25.69-105 498.8 498.8 0 0 0 87.05 159.47l-1.2 1.2a40 40 0 0 0 56.45 56.66 499.76 499.76 0 0 0 152.5 93.5z" fill="#d36e7f"/><path d="m179 368.5a40 40 0 0 1 -56.44-56.69l1.2-1.2a502.93 502.93 0 0 0 55.24 57.89z" fill="#404449"/></g></svg>