<svg fill="none" height="300" viewBox="0 0 50 50" width="300" xmlns="http://www.w3.org/2000/svg" version="1.1" xmlns:xlink="http://www.w3.org/1999/xlink" xmlns:svgjs="http://svgjs.dev/svgjs"><g width="100%" height="100%" transform="matrix(1,0,0,1,0,0)"><path d="m27.9376 25 8.9583-8.9375c.3923-.3923.6127-.9244.6127-1.4792s-.2204-1.0869-.6127-1.4792-.9243-.6126-1.4791-.6126-1.0869.2203-1.4792.6126l-8.9375 8.9584-8.9375-8.9584c-.3923-.3923-.9244-.6126-1.4791-.6126-.5548 0-1.0869.2203-1.4792.6126s-.6127.9244-.6127 1.4792.2204 1.0869.6127 1.4792l8.9583 8.9375-8.9583 8.9375c-.1953.1937-.3503.4241-.456.6779-.1058.2539-.1603.5262-.1603.8012 0 .2751.0545.5474.1603.8012.1057.2539.2607.4843.456.678.1937.1953.4241.3503.6779.456.2539.1058.5262.1603.8013.1603.275 0 .5473-.0545.8012-.1603.2538-.1057.4842-.2607.6779-.456l8.9375-8.9583 8.9375 8.9583c.1937.1953.4241.3503.678.456.2539.1058.5262.1603.8012.1603s.5473-.0545.8012-.1603c.2539-.1057.4843-.2607.6779-.456.1953-.1937.3503-.4241.4561-.678.1057-.2538.1602-.5261.1602-.8012 0-.275-.0545-.5473-.1602-.8012-.1058-.2538-.2608-.4842-.4561-.6779z" fill="#5c5a5a" fill-opacity="1" data-original-color="#000000ff" stroke="none" stroke-opacity="1"/></g></svg>