<svg fill="none" height="300" viewBox="0 0 50 50" width="300" xmlns="http://www.w3.org/2000/svg" version="1.1" xmlns:xlink="http://www.w3.org/1999/xlink" xmlns:svgjs="http://svgjs.dev/svgjs"><g width="100%" height="100%" transform="matrix(1,0,0,1,0,0)"><path d="m32.7291 17.2708c-.1936-.1953-.4241-.3503-.6779-.456-.2539-.1058-.5262-.1603-.8012-.1603-.2751 0-.5474.0545-.8012.1603-.2539.1057-.4843.2607-.678.456l-4.7708 4.7917-4.7709-4.7917c-.3923-.3923-.9243-.6127-1.4791-.6127s-1.0869.2204-1.4792.6127-.6127.9244-.6127 1.4792.2204 1.0868.6127 1.4791l4.7917 4.7709-4.7917 4.7708c-.1953.1937-.3503.4241-.456.678-.1058.2538-.1603.5261-.1603.8012 0 .275.0545.5473.1603.8012.1057.2538.2607.4843.456.6779.1937.1953.4241.3503.678.456.2538.1058.5261.1603.8012.1603.275 0 .5473-.0545.8012-.1603.2538-.1057.4843-.2607.6779-.456l4.7709-4.7916 4.7708 4.7916c.1937.1953.4241.3503.678.456.2538.1058.5261.1603.8012.1603.275 0 .5473-.0545.8012-.1603.2538-.1057.4843-.2607.6779-.456.1953-.1936.3503-.4241.456-.6779.1058-.2539.1603-.5262.1603-.8012 0-.2751-.0545-.5474-.1603-.8012-.1057-.2539-.2607-.4843-.456-.678l-4.7916-4.7708 4.7916-4.7709c.1953-.1936.3503-.4241.456-.6779.1058-.2539.1603-.5262.1603-.8012 0-.2751-.0545-.5474-.1603-.8012-.1057-.2539-.2607-.4843-.456-.678zm6.8542-13.10417h-29.1667c-1.65758 0-3.24729.65848-4.41939 1.83058s-1.83058 2.76181-1.83058 4.41939v29.1667c0 1.6576.65848 3.2473 1.83058 4.4194s2.76181 1.8306 4.41939 1.8306h29.1667c1.6576 0 3.2473-.6585 4.4194-1.8306s1.8306-2.7618 1.8306-4.4194v-29.1667c0-1.65758-.6585-3.24729-1.8306-4.41939s-2.7618-1.83058-4.4194-1.83058zm2.0833 35.41667c0 .5525-.2195 1.0824-.6102 1.4731s-.9206.6102-1.4731.6102h-29.1667c-.55251 0-1.08241-.2195-1.47311-.6102s-.6102-.9206-.6102-1.4731v-29.1667c0-.55251.2195-1.08241.6102-1.47311s.9206-.6102 1.47311-.6102h29.1667c.5525 0 1.0824.2195 1.4731.6102s.6102.9206.6102 1.47311z" fill="#5c5a5a" fill-opacity="1" data-original-color="#000000ff" stroke="none" stroke-opacity="1"/></g></svg>