<svg viewBox="0 0 512 512" xmlns="http://www.w3.org/2000/svg"><g id="_23_Chat" data-name="23 Chat"><path d="m494.62 407.24c-12.9 1.15-28.21.05-43.41-6.87l-.29-.13a28.32 28.32 0 0 1 -13.08-38.87 225.38 225.38 0 0 0 26-102.9c1.31-122.91-99.74-226.85-222.64-228.85-126.84-2.05-230.27 100.16-230.2 226.52.07 125 102.43 226.81 227.41 226.26a225.28 225.28 0 0 0 131.23-42.62 28.18 28.18 0 0 1 21.62-4.9 162.84 162.84 0 0 0 106.59-16.56c5.66-3.01 3.15-11.65-3.23-11.08z" fill="#75b49d"/><path d="m196.86 372.43a29.93 29.93 0 0 1 -20.18-7.8l-88-80a30 30 0 0 1 40.32-44.4l69.34 63 162.42-125.91a30 30 0 1 1 36.77 47.4l-182.29 141.41a29.93 29.93 0 0 1 -18.38 6.3z" fill="#f6f4f9"/><path d="m331.5 462a225.15 225.15 0 0 1 -93.09 20.44c-125 .54-227.33-101.29-227.4-226.27a225.46 225.46 0 0 1 25.69-105 497.82 497.82 0 0 0 44.84 98.91 30 30 0 0 0 7.14 34.58l60.93 55.34a500.6 500.6 0 0 0 181.89 122z" fill="#63a28a"/><path d="m149.62 340-60.94-55.4a30 30 0 0 1 -7.14-34.58 502.21 502.21 0 0 0 68.08 89.98z" fill="#e3e2e7"/></g></svg>