<svg height="512" viewBox="0 0 512 512" width="512" xmlns="http://www.w3.org/2000/svg"><g id="_11.Error" data-name="11.Error"><circle cx="256" cy="256" fill="#fcd8d8" r="245"/><path d="m319.6364 256 53.8711-53.8711a44.9974 44.9974 0 0 0 0-63.6363 44.9976 44.9976 0 0 0 -63.6364 0l-53.8711 53.8709-53.8711-53.8709a44.9974 44.9974 0 0 0 -63.6363 0 44.9976 44.9976 0 0 0 0 63.6363l53.8709 53.8711-53.8709 53.871a44.9979 44.9979 0 0 0 0 63.6365 44.9976 44.9976 0 0 0 63.6363 0l53.8711-53.8711 53.8711 53.8711a44.9977 44.9977 0 0 0 63.6364 0 44.9977 44.9977 0 0 0 0-63.6365z" fill="#f17b89"/><path d="m264.8144 500.844q-4.38.165-8.81.16c-135.31 0-245-109.69-245-245a243.7778 243.7778 0 0 1 34.09-124.73c14.0301 154.0301 97.92 287.8699 219.72 369.57z" fill="#eacccc"/></g></svg>