<svg viewBox="0 0 512 512" xmlns="http://www.w3.org/2000/svg"><g id="_30_Save" data-name="30 Save"><path d="m351.54 308.57a74.58 74.58 0 0 0 102.07 69.29v63.71a35.55 35.55 0 0 1 -35.55 35.54h-371.13a35.55 35.55 0 0 1 -35.55-35.54v-371.14a35.55 35.55 0 0 1 35.55-35.54h269.8a35.54 35.54 0 0 1 25.14 10.41l101.33 101.33a35.58 35.58 0 0 1 10.41 25.13v67.52a74.58 74.58 0 0 0 -102.07 69.29z" fill="#f5d267"/><path d="m367.33 354.43v122.68h-269.67v-151.88a36.8 36.8 0 0 1 36.79-36.8h196.08a36.66 36.66 0 0 1 22.11 7.38 74.51 74.51 0 0 0 14.69 58.62z" fill="#4a5058"/><path d="m279.49 99.75h-125.49a12 12 0 0 1 -12-12v-52.86h149.45v52.89a12 12 0 0 1 -11.96 11.97z" fill="#4a5058"/><circle cx="426.08" cy="308.57" fill="#cfdbe4" r="74.54"/><path d="m468.36 298.8-1.15-25.12a5.8 5.8 0 0 0 -9.44-4.24l-23.16 18.7a5.79 5.79 0 0 0 2.16 10.11l24.32 6.43a5.8 5.8 0 0 0 7.27-5.88z" fill="#4a5058"/><path d="m98.09 319.58a37.57 37.57 0 0 0 -.43 5.65v151.88h-50.73a35.55 35.55 0 0 1 -35.55-35.54v-289.7a498.49 498.49 0 0 0 86.71 167.71z" fill="#e0bf60"/><path d="m311.21 477.11h-213.55v-151.88a37.57 37.57 0 0 1 .43-5.65 501.32 501.32 0 0 0 213.12 157.53z" fill="#3f4449"/><path d="m423 356.46a49.57 49.57 0 0 1 -19.35-4 41.7 41.7 0 0 1 -22-22.09c-6.34-15.07-5-31.13 3.57-44.08a45.19 45.19 0 0 1 63.78-11.89 6 6 0 1 1 -7 9.78 33.19 33.19 0 0 0 -46.85 8.74c-6.34 9.54-7.25 21.49-2.5 32.8a29.61 29.61 0 0 0 15.6 15.68c19 8.05 35.5-.91 42.79-12.63a6 6 0 1 1 10.19 6.33 44.64 44.64 0 0 1 -38.23 21.36z" fill="#4a5058"/></g></svg>